<svg id="e2Clk5AoctS1" xmlns="http://www.w3.org/2000/svg" xmlns:xlink="http://www.w3.org/1999/xlink"
     viewBox="0 0 2106.320000 269.080000" shape-rendering="geometricPrecision" text-rendering="geometricPrecision">
    <defs>
           <linearGradient id="e2Clk5AoctS12-fill" x1="0.500000" y1="0" x2="0.500000" y2="1" spreadMethod="pad"
                        gradientUnits="objectBoundingBox">
            <stop id="e2Clk5AoctS12-fill-0" offset="0%" stop-color="rgb(255,255,255)"/>
            <stop id="e2Clk5AoctS12-fill-1" offset="34.800000%" stop-color="rgb(255,255,255)"/>
            <stop id="e2Clk5AoctS12-fill-2" offset="100%" stop-color="rgb(211,211,211)"/>
        </linearGradient>
        <linearGradient id="e2Clk5AoctS15-fill" x1="0.500000" y1="0" x2="0.500000" y2="1" spreadMethod="pad"
                        gradientUnits="objectBoundingBox">
            <stop id="e2Clk5AoctS15-fill-0" offset="0%" stop-color="rgb(255,255,255)"/>
            <stop id="e2Clk5AoctS15-fill-1" offset="34.800000%" stop-color="rgb(255,255,255)"/>
            <stop id="e2Clk5AoctS15-fill-2" offset="100%" stop-color="rgb(211,211,211)"/>
        </linearGradient>
        <linearGradient id="e2Clk5AoctS18-fill" x1="0.500000" y1="0" x2="0.500000" y2="1" spreadMethod="pad"
                        gradientUnits="objectBoundingBox">
            <stop id="e2Clk5AoctS18-fill-0" offset="0%" stop-color="rgb(255,255,255)"/>
            <stop id="e2Clk5AoctS18-fill-1" offset="34.800000%" stop-color="rgb(255,255,255)"/>
            <stop id="e2Clk5AoctS18-fill-2" offset="100%" stop-color="rgb(211,211,211)"/>
        </linearGradient>
    </defs>
    <g id="e2Clk5AoctS2" transform="matrix(1 0 0 1 2492.26999999999998 -5494)">
        <g id="e2Clk5AoctS3">
            <path id="e2Clk5AoctS4"
                  d="M-193.852000,70.732000C-196.584516,72.936417,-199.726664,74.577675,-203.097000,75.561000C-207.349063,76.824963,-211.769685,77.429983,-216.205000,77.355000Q-226.140000,77.355000,-232.625000,74.871000C-236.638798,73.531812,-239.768257,70.351044,-241.042000,66.316000Q-248.769000,42.031000,-253.736000,26.992000Q-258.703000,11.953000,-261.463000,0.638000L-262.843000,0.638000Q-263.671000,16.920000,-264.085000,30.304000Q-264.499000,43.688000,-264.637000,56.382000Q-264.775000,69.076000,-265.189000,82.046000Q-265.603000,95.016000,-266.431000,110.746000C-269.474542,111.832564,-272.617221,112.618317,-275.814000,113.092000C-279.644071,113.733164,-283.520634,114.056266,-287.404000,114.058000Q-299.546000,114.058000,-306.304000,110.195000Q-313.062000,106.332000,-313.065000,96.121000Q-313.065000,87.566000,-312.237000,71.147000Q-311.409000,54.728000,-310.167000,34.858000Q-308.925000,14.989000,-307.545000,-5.984000Q-306.165000,-26.957000,-305.061000,-44.618000Q-302.853000,-48.205000,-295.402000,-52.345000Q-287.951000,-56.485000,-274.429000,-56.484000Q-259.803000,-56.484000,-251.529000,-51.931000Q-243.255000,-47.378000,-239.387000,-37.167000Q-236.900000,-30.545000,-234,-21.991000Q-231.100000,-13.437000,-228.200000,-4.330000Q-225.300000,4.777000,-222.543000,13.745000L-217.576000,29.889000L-216.196000,29.889000Q-209.573000,6.708000,-202.950000,-14.955000Q-196.327000,-36.618000,-190.808000,-51.244000C-187.439738,-52.933004,-183.869507,-54.184803,-180.184000,-54.969000C-175.429869,-56.026712,-170.570118,-56.535705,-165.700000,-56.486000Q-152.178000,-56.486000,-143.623000,-52.486000Q-135.068000,-48.486000,-133.688000,-41.034000Q-132.588000,-35.515000,-131.342000,-24.062000Q-130.096000,-12.609000,-128.720000,1.738000Q-127.340000,16.088000,-125.960000,32.094000Q-124.580000,48.100000,-123.338000,62.864000Q-122.096000,77.628000,-121.268000,89.908000Q-120.440000,102.188000,-120.168000,108.808000C-123.220049,110.616284,-126.522307,111.964144,-129.968000,112.808000C-134.274662,113.727120,-138.673353,114.143902,-143.076000,114.050000Q-153.563000,114.050000,-160.737000,110.463000Q-167.911000,106.876000,-168.464000,96.400000Q-170.120000,66.320000,-170.534000,42.312000Q-170.948000,18.304000,-171.776000,2.022000L-173.156000,2.022000Q-175.916000,12.784000,-181.156000,29.066000Q-186.396000,45.348000,-193.852000,70.732000ZM44.578000,44.792000C44.730266,54.955282,42.999426,65.058910,39.473000,74.592000C36.301032,83.069763,31.308031,90.748545,24.846000,97.087000C18.329046,103.357256,10.575020,108.198158,2.080000,111.300000C-7.473700,114.734678,-17.568763,116.417302,-27.720000,116.267000C-37.859499,116.415165,-47.946177,114.780649,-57.520000,111.438000C-66.027386,108.421308,-73.792280,103.622246,-80.295000,97.362000C-86.756060,91.024893,-91.748677,83.347883,-94.921000,74.872000Q-100.026000,61.626000,-100.026000,44.792000C-100.164868,34.706054,-98.385634,24.685604,-94.783000,15.264000C-91.527338,6.797118,-86.492663,-0.872544,-80.019000,-7.227000C-73.501643,-13.496991,-65.747278,-18.337551,-57.252000,-21.439000C-47.788729,-24.859225,-37.785459,-26.541907,-27.724000,-26.406000C-17.651730,-26.542649,-7.641360,-24.811415,1.800000,-21.300000C10.286843,-18.115277,18.034805,-13.232734,24.570000,-6.951000C31.043663,-0.596544,36.078338,7.073118,39.334000,15.540000C42.920625,24.870023,44.699910,34.797096,44.577000,44.792000ZM-27.722000,10.292000Q-39.312000,10.292000,-45.659000,19.261000Q-52.006000,28.230000,-52.006000,44.787000Q-52.006000,62.173000,-45.659000,70.865000Q-39.312000,79.557000,-27.722000,79.558000Q-16.132000,79.558000,-9.785000,70.727000Q-3.438000,61.896000,-3.438000,44.787000Q-3.438000,28.229000,-9.785000,19.261000Q-16.132000,10.293000,-27.724000,10.300000ZM206.293000,44.792000C206.445289,54.955284,204.714448,65.058916,201.188000,74.592000C198.015806,83.068241,193.023182,90.745604,186.562000,97.083000C180.044541,103.355047,172.289434,108.197348,163.793000,111.300000C154.239300,114.734678,144.144237,116.417302,133.993000,116.267000C123.853503,116.415144,113.766828,114.780629,104.193000,111.438000C95.685614,108.421308,87.920720,103.622246,81.418000,97.362000C74.956940,91.024893,69.964323,83.347883,66.792000,74.872000Q61.687000,61.626000,61.687000,44.792000C61.548132,34.706054,63.327366,24.685604,66.930000,15.264000C70.185662,6.797118,75.220337,-0.872544,81.694000,-7.227000C88.211357,-13.496991,95.965722,-18.337551,104.461000,-21.439000C113.924271,-24.859225,123.927541,-26.541907,133.989000,-26.406000C144.062612,-26.543144,154.074383,-24.811902,163.517000,-21.300000C172.002846,-18.114593,179.749759,-13.231728,186.284000,-6.950000C192.757183,-0.595737,197.791506,7.073565,201.047000,15.540000C204.633625,24.870023,206.412910,34.797096,206.290000,44.792000ZM133.993000,10.292000Q122.403000,10.292000,116.056000,19.261000Q109.709000,28.230000,109.700000,44.792000Q109.700000,62.178000,116.047000,70.870000Q122.394000,79.562000,133.984000,79.563000Q145.574000,79.563000,151.921000,70.732000Q158.268000,61.901000,158.268000,44.792000Q158.268000,28.234000,151.921000,19.266000Q145.574000,10.298000,133.989000,10.300000ZM361.100000,111.574000C358.235921,112.289672,355.333606,112.842557,352.407000,113.230000C348.339050,113.802350,344.234963,114.079075,340.127000,114.058000Q326.327000,114.058000,320.258000,109.505000Q314.189000,104.952000,314.187000,91.981000L314.187000,26.855000Q314.187000,18.300000,309.082000,14.299000Q303.977000,10.298000,295.698000,10.299000C292.200876,10.274415,288.717489,10.738911,285.349000,11.679000C282.162866,12.585685,279.067891,13.786516,276.104000,15.266000L276.104000,111.576000C273.239920,112.291668,270.337606,112.844553,267.411000,113.232000C263.343050,113.804350,259.238963,114.081075,255.131000,114.060000Q241.331000,114.060000,235.262000,109.507000Q229.193000,104.954000,229.200000,91.981000L229.200000,8.917000Q229.200000,1.466000,232.374000,-3.225000C234.723525,-6.584778,237.670057,-9.484535,241.067000,-11.780000Q250.444000,-18.400000,264.656000,-22.400000C274.956413,-25.174350,285.589179,-26.520270,296.256000,-26.400000Q327.440000,-26.400000,344.273000,-12.740000Q361.106000,0.920000,361.100000,25.475000ZM872.736000,77.631000Q886.258000,77.631000,891.777000,73.216000Q897.296000,68.801000,897.296000,63.281000C897.406721,59.819221,895.741623,56.540693,892.881000,54.588000C889.041645,52.035541,884.861022,50.038147,880.463000,48.655000L868.873000,44.792000Q856.730000,40.653000,846.800000,36.375000C840.616210,33.790556,834.850096,30.302917,829.690000,26.026000C824.966653,22.056067,821.154718,17.114468,818.514000,11.538000Q814.514000,3.121000,814.514000,-9.021000Q814.514000,-32.478000,832.589000,-46.552000Q850.664000,-60.626000,883.228000,-60.626000C890.617813,-60.664992,897.998838,-60.110880,905.300000,-58.969000C911.349702,-58.089217,917.247370,-56.371041,922.823000,-53.864000C927.292567,-51.880096,931.220106,-48.851446,934.275000,-45.033000C937.037448,-41.437519,938.496817,-37.010403,938.414000,-32.477000C938.537468,-28.148194,937.384974,-23.878682,935.100000,-20.200000C932.954274,-16.862919,930.247748,-13.921940,927.100000,-11.507000C922.020054,-14.520001,916.538000,-16.796390,910.818000,-18.268000C903.536865,-20.263237,896.014227,-21.239198,888.465000,-21.168000Q876.047000,-21.168000,870.251000,-17.719000Q864.455000,-14.270000,864.451000,-9.026000C864.426674,-6.310822,865.776143,-3.767259,868.038000,-2.265000C871.348019,-0.091476,874.983273,1.540658,878.807000,2.570000L893.433000,7.261000Q919.373000,15.540000,933.309000,28.648000Q947.245000,41.756000,947.245000,63.833000C947.319066,71.225043,945.715146,78.537565,942.554000,85.220000C939.329033,91.869756,934.548691,97.644173,928.618000,102.054000Q919.373000,109.091000,905.718000,112.954000C895.503624,115.670594,884.964341,116.970423,874.396000,116.817000C866.483586,116.866065,858.584004,116.173031,850.801000,114.747000C844.210721,113.585347,837.806418,111.543410,831.760000,108.676000C826.816934,106.391159,822.471600,102.990270,819.066000,98.741000C816.046567,94.833928,814.441480,90.018314,814.513000,85.081000C814.385934,80.112141,816.051027,75.263456,819.204000,71.421000C822.029015,67.905337,825.493592,64.955815,829.415000,62.728000C835.176074,67.116913,841.542069,70.648862,848.315000,73.214000C856.102091,76.219824,864.389380,77.718737,872.736000,77.631000ZM1063.149000,36.513000Q1061.217000,46.172000,1058.458000,56.520000Q1055.699000,66.868000,1052.800000,76.389000Q1049.900000,85.910000,1047.419000,94.050000Q1044.938000,102.190000,1043.556000,107.158000C1040.458419,109.639080,1036.891847,111.469303,1033.070000,112.539000C1027.960178,114.014098,1022.657481,114.711910,1017.340000,114.609000C1010.670067,114.755001,1004.029714,113.679287,997.747000,111.435000Q989.468000,108.261000,986.709000,102.466000C985.020201,98.407102,983.546491,94.262020,982.294000,90.048000Q979.810000,82.048000,977.189000,71.973000Q974.568000,61.898000,971.946000,50.310000Q969.324000,38.720000,966.979000,27.129000Q964.634000,15.538000,962.561000,4.640000Q960.491000,-6.260000,959.112000,-15.367000C965.769410,-21.597603,974.553841,-25.052359,983.672000,-25.026000Q993.331000,-25.026000,999.540000,-20.749000Q1005.749000,-16.472000,1007.129000,-5.985000Q1009.889000,14.988000,1011.820000,28.648000Q1013.751000,42.308000,1014.993000,51Q1016.235000,59.693000,1016.925000,64.246000Q1017.615000,68.799000,1018.167000,71.559000L1019.267000,71.559000Q1020.095000,67.144000,1022.167000,58.727000Q1024.239000,50.310000,1027,39.549000Q1029.760000,28.787000,1032.800000,16.230000Q1035.840000,3.673000,1038.871000,-8.744000C1042.334878,-10.675238,1045.987220,-12.247086,1049.771000,-13.435000C1054.127205,-14.639247,1058.636654,-15.197200,1063.155000,-15.091000C1068.825041,-15.236802,1074.463531,-14.202954,1079.713000,-12.055000Q1086.613000,-9.019000,1088.544000,-2.672000Q1091.855000,9.470000,1094.891000,20.923000Q1097.927000,32.376000,1100.400000,42.170000Q1102.884000,51.970000,1104.816000,59.556000Q1106.748000,67.142000,1107.576000,71.556000L1108.956000,71.556000Q1111.992000,50.307000,1114.889000,27.402000Q1117.786000,4.497000,1120.270000,-19.235000C1123.519827,-21.232618,1127.056036,-22.721495,1130.756000,-23.650000C1134.364784,-24.561100,1138.071985,-25.024584,1141.794000,-25.030000Q1151.453000,-25.030000,1157.800000,-20.891000Q1164.147000,-16.752000,1164.147000,-6.541000C1164.002830,-2.144165,1163.541633,2.236540,1162.767000,6.567000Q1161.387000,15.260000,1159.180000,26.298000Q1156.973000,37.336000,1154.075000,49.479000Q1151.175000,61.621000,1148.275000,72.798000Q1145.375000,83.975000,1142.756000,93.081000Q1140.134000,102.188000,1138.203000,107.155000Q1134.340000,110.467000,1126.337000,112.536000C1120.744288,113.947509,1114.994964,114.643073,1109.227000,114.606000Q1086.046000,114.606000,1081.907000,103.016000Q1080.251000,98.049000,1077.768000,90.460000Q1075.285000,82.871000,1072.525000,74.040000Q1069.765000,65.209000,1067.282000,55.413000Q1064.799000,45.617000,1063.148000,36.513000ZM1242.800000,82.047000C1246.270648,82.015708,1249.732516,81.692569,1253.149000,81.081000C1256.086858,80.707999,1258.936053,79.820440,1261.566000,78.459000L1261.566000,56.382000L1241.700000,58.038000C1237.276661,58.208521,1232.943265,59.338616,1229,61.350000C1225.864155,62.896945,1223.922011,66.134112,1224.033000,69.629000C1223.947419,73.129523,1225.536110,76.461058,1228.310000,78.598000Q1232.588000,82.047000,1242.800000,82.047000ZM1240.592000,-26.406000C1249.742021,-26.495364,1258.869175,-25.475938,1267.774000,-23.370000C1275.287890,-21.645843,1282.405334,-18.508439,1288.747000,-14.125000C1294.455294,-10.087677,1299.057272,-4.680362,1302.130000,1.600000Q1306.821000,11.121000,1306.821000,24.091000L1306.821000,85.910000Q1306.821000,93.085000,1302.821000,97.638000C1300.075147,100.738317,1296.862945,103.391817,1293.300000,105.503000Q1275.363000,116.265000,1242.800000,116.265000C1233.938479,116.360391,1225.095482,115.434282,1216.446000,113.505000C1209.298701,111.944049,1202.480462,109.141954,1196.301000,105.226000C1190.847716,101.718068,1186.382768,96.873066,1183.331000,91.152000C1180.191690,85.008116,1178.627207,78.180814,1178.778000,71.283000Q1178.778000,52.242000,1190.092000,42.031000Q1201.406000,31.820000,1225.139000,29.337000L1261.290000,25.474000L1261.290000,23.543000Q1261.290000,15.543000,1254.253000,12.091000Q1247.216000,8.639000,1233.970000,8.641000C1227.149115,8.642609,1220.348464,9.382926,1213.687000,10.849000C1207.511756,12.154837,1201.463422,14.001629,1195.612000,16.368000C1192.968317,14.403611,1190.877059,11.789453,1189.541000,8.779000C1187.908351,5.475333,1187.058390,1.840073,1187.057000,-1.845000Q1187.057000,-9.020000,1190.507000,-13.297000Q1193.957000,-17.574000,1201.132000,-20.610000C1207.237416,-22.816560,1213.580873,-24.298378,1220.032000,-25.025000C1226.849304,-25.915554,1233.715837,-26.376797,1240.591000,-26.406000ZM1404.792000,115.994000C1400.724402,116.022210,1396.661969,115.699008,1392.650000,115.028000C1389.179654,114.438005,1385.764264,113.560995,1382.439000,112.406000L1382.439000,160.975000C1379.574918,161.690662,1376.672605,162.243547,1373.746000,162.631000C1369.678051,163.203360,1365.573963,163.480085,1361.466000,163.459000Q1347.666000,163.459000,1341.597000,158.906000Q1335.528000,154.353000,1335.526000,141.383000L1335.526000,6.985000C1335.365634,2.626334,1336.467817,-1.685862,1338.700000,-5.433000C1340.948835,-8.876542,1343.913915,-11.794552,1347.393000,-13.988000Q1355.948000,-19.507000,1369.332000,-22.957000C1379.128130,-25.360128,1389.188040,-26.519259,1399.274000,-26.407000C1409.540322,-26.514344,1419.767171,-25.119927,1429.630000,-22.268000C1438.350831,-19.765473,1446.440436,-15.438609,1453.363000,-9.574000C1460.146600,-3.644249,1465.400404,3.833743,1468.679000,12.226000Q1474.060000,25.472000,1474.060000,43.961000Q1474.060000,61.622000,1468.817000,75.007000C1462.536094,91.877594,1449.169699,105.143098,1432.252000,111.296000C1423.453997,114.499116,1414.150423,116.089233,1404.788000,115.990000ZM1397.617000,79.015000Q1411.417000,79.015000,1418.728000,70.184000Q1426.039000,61.353000,1426.041000,43.968000Q1426.041000,26.307000,1419.280000,18.304000Q1412.519000,10.301000,1399.273000,10.304000C1396.011628,10.273375,1392.761531,10.691288,1389.614000,11.546000C1387.030358,12.233006,1384.531283,13.205670,1382.163000,14.446000L1382.163000,75.148000C1384.464107,76.288046,1386.866079,77.212010,1389.338000,77.908000C1392.031484,78.659350,1394.816753,79.030607,1397.613000,79.011000Z"
                  transform="matrix(1 0 0 1 -1860 5599.61999999999989)" fill="rgb(0,0,0)" stroke="none"
                  stroke-width="1"/>
            <g id="e2Clk5AoctS5_to" transform="translate(-1265.157516,5714.819019)">
                <g id="e2Clk5AoctS5_ts" transform="scale(1,1)">
                    <path id="e2Clk5AoctS5"
                          d="M530.544000,-0.742000C530.703073,9.200128,527.866397,18.960021,522.403000,27.268000C516.826543,35.595334,509.415855,42.533939,500.740000,47.551000Q505.983000,54.726000,511.364000,61.351000Q516.745000,67.976000,521.437000,74.045000Q526.128000,80.116000,529.854000,85.359000Q533.580000,90.602000,536.063000,94.742000Q533.300000,104.400000,525.991000,109.500000C521.188167,112.880919,515.444160,114.666739,509.571000,114.605000C506.025901,114.673640,502.490655,114.208432,499.084000,113.225000C496.306370,112.388699,493.692797,111.082082,491.357000,109.362000C489.066661,107.623839,487.024161,105.581339,485.286000,103.291000C483.391268,100.818248,481.640696,98.238300,480.043000,95.564000L456.587000,57.762000L441.961000,57.762000L441.961000,111.574000C438.870710,112.320087,435.736988,112.873156,432.578000,113.230000C428.277143,113.786414,423.944697,114.062995,419.608000,114.058000Q404.982000,114.058000,399.325000,109.091000Q393.668000,104.124000,393.668000,91.154000L393.668000,-39.652000Q393.668000,-45.452000,396.842000,-48.621000C399.319890,-50.953409,402.290977,-52.698193,405.535000,-53.726000C412.606268,-56.117083,419.915457,-57.736169,427.335000,-58.555000C436.126797,-59.596793,444.973747,-60.103726,453.827000,-60.073000Q491.910000,-60.073000,511.227000,-43.929000Q530.544000,-27.785000,530.544000,-0.742000ZM455.207000,21.058000Q466.797000,21.058000,474.248000,15.677000Q481.699000,10.296000,481.700000,-0.190000Q481.700000,-10.677000,474.939000,-16.058000Q468.178000,-21.439000,453.552000,-21.439000Q450.240000,-21.439000,447.343000,-21.163000Q444.446000,-20.887000,441.410000,-20.335000L441.410000,21.059000ZM615.540000,82.047000C619.010648,82.015708,622.472516,81.692569,625.889000,81.081000C628.826867,80.708040,631.676069,79.820478,634.306000,78.459000L634.306000,56.382000L614.437000,58.038000C610.015705,58.209416,605.684454,59.339485,601.743000,61.350000C598.607155,62.896945,596.665011,66.134112,596.776000,69.629000C596.690419,73.129523,598.279110,76.461058,601.053000,78.598000Q605.330000,82.047000,615.540000,82.047000ZM613.333000,-26.406000C622.483021,-26.495364,631.610175,-25.475938,640.515000,-23.370000C648.028890,-21.645843,655.146334,-18.508439,661.488000,-14.125000C667.196690,-10.087835,671.799028,-4.680500,674.872000,1.600000Q679.563000,11.121000,679.563000,24.091000L679.563000,85.910000Q679.563000,93.085000,675.563000,97.638000C672.817181,100.738352,669.604973,103.391857,666.042000,105.503000Q648.105000,116.265000,615.542000,116.265000C606.680479,116.360391,597.837482,115.434282,589.188000,113.505000C582.040695,111.944069,575.222452,109.141973,569.043000,105.226000C563.589716,101.718068,559.124768,96.873066,556.073000,91.152000C552.933690,85.008116,551.369207,78.180814,551.520000,71.283000Q551.520000,52.242000,562.834000,42.031000Q574.148000,31.820000,597.881000,29.337000L634.032000,25.474000L634.032000,23.543000Q634.032000,15.543000,626.995000,12.091000Q619.958000,8.639000,606.712000,8.641000C599.891115,8.642609,593.090464,9.382926,586.429000,10.849000C580.253419,12.154791,574.204748,14.001583,568.353000,16.368000C565.709380,14.403546,563.618137,11.789406,562.282000,8.779000C560.650043,5.475167,559.800768,1.839915,559.800000,-1.845000Q559.800000,-9.020000,563.249000,-13.297000Q566.698000,-17.574000,573.873000,-20.610000C579.978416,-22.816560,586.321873,-24.298378,592.773000,-25.025000C599.590635,-25.915596,606.457503,-26.376839,613.333000,-26.406000ZM759.316000,115.994000Q735.031000,115.994000,721.923000,104.956000Q708.815000,93.918000,708.815000,69.077000L708.815000,-53.450000Q711.851000,-54.278000,717.508000,-55.244000C721.473621,-55.903671,725.487922,-56.226822,729.508000,-56.210000Q743.030000,-56.210000,749.101000,-51.519000Q755.172000,-46.828000,755.172000,-34.133000L755.172000,-19.233000L791.323000,-19.233000C792.599696,-16.800456,793.661723,-14.261161,794.497000,-11.644000C795.542589,-8.390093,796.055203,-4.988536,796.015000,-1.571000Q796.015000,8.088000,791.738000,12.365000Q787.461000,16.642000,780.286000,16.642000L755.176000,16.642000L755.176000,65.765000Q755.176000,72.940000,759.729000,75.976000Q764.282000,79.012000,772.561000,79.012000C775.426218,79.003546,778.286464,78.772854,781.116000,78.322000C783.736673,77.937795,786.321128,77.337755,788.843000,76.528000C790.531786,78.604048,791.967546,80.873669,793.120000,83.289000C794.385216,86.105604,794.998450,89.171433,794.914000,92.258000C795.087335,98.872361,792.181995,105.192815,787.049000,109.368000Q779.185000,115.990000,759.316000,115.990000Z"
                          transform="translate(-594.842484,-114.749019)" fill="rgb(0,0,0)" stroke="none"
                          stroke-width="1"/>
                </g>
            </g>
        </g>
        <g id="e2Clk5AoctS6" transform="matrix(1 0 0 1 -2492.26999999999998 5494)">
            <g id="e2Clk5AoctS7" transform="matrix(1 0 0 1 121.53000000000000 225.21799999999999)">
                <path id="e2Clk5AoctS8"
                      d="M246.549000,344.633000L232.200000,344.633000L223.100000,324.985000L255.650000,324.985000Z"
                      transform="matrix(1 0 0 1 -218.47100000000000 -322.84699999999998)" fill="rgb(255,255,255)"
                      stroke="none" stroke-width="1"/>
                <path id="e2Clk5AoctS9"
                      d="M244.357000,357.300000Q249.298000,357.300000,254.245000,357.080000L250.057000,371.357000L238.657000,371.357000L234.469000,357.080000Q239.419000,357.288000,244.357000,357.300000ZM224.214000,356.411000L230.414000,377.541000C231.019906,379.592457,232.903935,381.000290,235.043000,381L253.672000,381C255.814298,381.000002,257.700173,379.587734,258.303000,377.532000L264.503000,356.402000C273.059000,355.665000,215.655000,355.664000,224.214000,356.407000Z"
                      transform="matrix(1 0 0 1 -223.34100000000001 -355.85000000000002)" fill="rgb(0,0,0)"
                      stroke="none" stroke-width="1"/>
            </g>
            <path id="e2Clk5AoctS10"
                  d="M427.805000,620.627000C427.805000,620.627000,427.805000,620.627000,427.038000,622.563000C426.271000,624.499000,426.245000,637.846000,427.038000,639.548000C427.831000,641.250000,427.860000,641.119000,427.860000,641.119000L439.790000,641.119000C439.790000,641.119000,439.942000,641.319000,440.679000,639.548000C441.416000,637.777000,441.707000,624.498000,440.679000,622.563000C439.651000,620.628000,439.629000,620.627000,439.629000,620.627000Z"
                  transform="matrix(1 0 0 1 -291.04300000000001 -420.30000000000001)" fill="rgb(0,0,0)" stroke="none"
                  stroke-width="1"/>
            <g id="e2Clk5AoctS11" transform="matrix(1 0 0 1 170.05199999999999 0)">
                <circle id="e2Clk5AoctS12" r="57.826000" transform="matrix(1 0 0 1 57.82600000000000 57.82600000000000)"
                        fill="url(#e2Clk5AoctS12-fill)" stroke="none" stroke-width="1"/>
                <path id="e2Clk5AoctS13"
                      d="M58.040000,12.747000C33.025497,12.747552,12.747632,33.026164,12.748000,58.040667C12.748368,83.055170,33.026830,103.333184,58.041333,103.333000C83.055836,103.332816,103.334000,83.054503,103.334000,58.040000C103.305343,33.036856,83.043144,12.775105,58.040000,12.747000M58.040000,0C90.094607,0,116.080000,25.985393,116.080000,58.040000C116.080000,90.094607,90.094607,116.080000,58.040000,116.080000C25.985393,116.080000,0,90.094607,0,58.040000C0,25.985393,25.985393,0,58.040000,0Z"
                      transform="matrix(1 0 0 1 0 0.08100000000000)" fill="rgb(0,0,0)" stroke="none" stroke-width="1"/>
            </g>
            <g id="e2Clk5AoctS14">
                <circle id="e2Clk5AoctS15" r="58.040000" transform="matrix(1 0 0 1 58.04000000000000 58.04000000000000)"
                        fill="url(#e2Clk5AoctS15-fill)" stroke="none" stroke-width="1"/>
                <path id="e2Clk5AoctS16"
                      d="M58.040000,12.747000C33.025497,12.747552,12.747632,33.026164,12.748000,58.040667C12.748368,83.055170,33.026830,103.333184,58.041333,103.333000C83.055836,103.332816,103.334000,83.054503,103.334000,58.040000C103.305343,33.036856,83.043144,12.775105,58.040000,12.747000M58.040000,0C90.094607,0,116.080000,25.985393,116.080000,58.040000C116.080000,90.094607,90.094607,116.080000,58.040000,116.080000C25.985393,116.080000,0,90.094607,0,58.040000C0,25.985393,25.985393,0,58.040000,0Z"
                      fill="rgb(0,0,0)" stroke="none" stroke-width="1"/>
            </g>
            <g id="e2Clk5AoctS17" transform="matrix(1 0 0 1 55.15200000000000 58.58700000000000)">
                <path id="e2Clk5AoctS18"
                      d="M271.628000,174.947000C271.628000,174.947000,309.136000,162.577000,344.250000,163.375000C379.364000,164.173000,415.276000,174.947000,415.276000,174.947000C415.276000,174.947000,425.252000,207.667000,425.252000,241.983000C425.252000,276.299000,415.276000,312.211000,415.276000,312.211000C415.276000,312.211000,378.566000,323.384000,344.250000,323.384000C309.934000,323.384000,271.628000,312.211000,271.628000,312.211000C271.628000,312.211000,262.051000,275.102000,262.451000,241.983000C262.851000,208.864000,271.628000,174.947000,271.628000,174.947000Z"
                      transform="matrix(1 0 0 1 -256.31900000000002 -157.22000000000000)"
                      fill="url(#e2Clk5AoctS18-fill)" stroke="none" stroke-width="1"/>
                <path id="e2Clk5AoctS19"
                      d="M88.211000,172.563000C76.297744,172.455836,64.408569,171.471171,52.640000,169.617000C43.175000,168.195000,33.354000,166.301000,23.450000,163.985000C20.311769,163.297045,17.292469,162.148969,14.490000,160.578000C13.506801,160.036719,12.590532,159.381905,11.760000,158.627000C11.010485,157.650569,10.369068,156.595736,9.847000,155.481000C8.301962,152.250924,7.187449,148.832074,6.532000,145.312000C4.668000,135.976000,3.166000,126.720000,2.069000,117.802000C0.653596,106.859001,-0.033250,95.834059,0.013000,84.800000C0.319000,59.363000,5.200000,33.500000,8.077000,20.347000C8.443192,18.522649,9.083802,16.764345,9.977000,15.132000C10.276503,14.574170,10.646174,14.056967,11.077000,13.593000C11.519963,13.130103,12.023135,12.728844,12.573000,12.400000C14.222648,11.388857,16.013601,10.628864,17.887000,10.145000C24.237000,8.377000,34.287000,5.828000,46.100000,3.729000C58.818931,1.368296,71.719406,0.120575,84.655000,0C85.848000,0,87.044000,0.013000,88.210000,0.040000C115.019000,0.650000,142.310000,6.656000,156.188000,10.183000C158.144517,10.645443,160.036003,11.349166,161.819000,12.278000C162.392263,12.571800,162.929237,12.931573,163.419000,13.350000C163.901615,13.817214,164.323893,14.342962,164.676000,14.915000C165.682021,16.524221,166.419017,18.286662,166.858000,20.133000C168.376000,26.123000,170.563000,35.653000,172.358000,47.033000C174.398616,59.520289,175.465164,72.147347,175.548000,84.800000C175.468621,96.212296,174.628089,107.606589,173.032000,118.907000C172.040000,126.226000,170.746000,133.855000,169.186000,141.582000C168.732000,143.832000,168.258000,146.068000,167.737000,148.418000C167.152975,151.224409,166.189807,153.938302,164.874000,156.485000C164.424384,157.372557,163.878429,158.207921,163.246000,158.976000C162.463536,159.642837,161.609672,160.221023,160.700000,160.700000C158.052753,162.120048,155.227811,163.180410,152.300000,163.853000C145.770000,165.453000,135.549000,167.730000,123.939000,169.534000C112.123968,171.450313,100.180011,172.462915,88.211000,172.563000ZM85.082000,11.870000C75.807357,11.936175,66.550984,12.703360,57.392000,14.165000C49.944000,15.309000,42.280000,16.854000,34.614000,18.755000C30.103892,19.808284,25.675449,21.184841,21.363000,22.874000C21.363000,22.885000,20.852000,24.074000,20.149000,26.242000C19.197787,29.207337,18.418162,32.225001,17.814000,35.280000C15.324000,47.780000,12.309000,66.556000,12.086000,84.999000C12.046716,94.649933,12.655418,104.292617,13.908000,113.862000C14.873000,121.616000,16.189000,129.651000,17.819000,137.744000C18.381182,140.668514,19.214789,143.534247,20.309000,146.304000C20.675430,147.251287,21.116134,148.168140,21.627000,149.046000C22.591572,149.649621,23.598915,150.182035,24.641000,150.639000C27.512947,151.916846,30.505056,152.905394,33.573000,153.590000C42.043000,155.534000,50.404000,157.116000,58.423000,158.290000C68.261555,159.802434,78.196241,160.604508,88.150000,160.690000C97.736849,160.617538,107.305995,159.853891,116.783000,158.405000C124.491000,157.275000,132.447000,155.756000,140.430000,153.890000C143.689005,153.145601,146.895846,152.188893,150.030000,151.026000C151.128694,150.623712,152.205805,150.164763,153.257000,149.651000C153.782397,148.590847,154.249753,147.502908,154.657000,146.392000C155.780360,143.377112,156.674240,140.281628,157.331000,137.132000C157.575000,135.982000,157.783000,134.976000,157.987000,133.967000C159.333000,127.306000,160.449000,120.727000,161.305000,114.412000C162.680600,104.667086,163.404873,94.841290,163.473000,85C163.473000,66.564000,160.388000,48.686000,157.800000,36.934000C157.067606,33.519701,156.044888,30.174205,154.743000,26.934000C154.283832,25.772079,153.749364,24.641345,153.143000,23.549000C152.060939,22.975083,150.945627,22.466180,149.803000,22.025000C146.597753,20.766261,143.300770,19.754967,139.941000,19C126.933000,16,107.388000,12.341000,88.150000,11.900000C87.145000,11.881000,86.113000,11.870000,85.082000,11.870000Z"
                      fill="rgb(0,0,0)" stroke="none" stroke-width="1"/>
            </g>
            <g id="e2Clk5AoctS20" transform="matrix(1 0 0 1 78.12000000000000 138.88999999999999)">
                <path id="e2Clk5AoctS21"
                      d="M247.274000,297.858000L247.274000,297.858000C252.985000,294.203000,258.027000,289.019000,263.233000,284.690000C266.517007,282.125790,267.742341,277.718238,266.253000,273.827000C263.659000,266.651000,253.653000,261.442000,242.453000,261.442000C231.211000,261.442000,221.185000,266.610000,218.611000,273.731000C217.110551,277.658126,218.350193,282.104607,221.666000,284.689000C226.866000,289.009000,231.925000,294.205000,237.620000,297.854000L247.272000,297.854000C225.859000,297.400000,247.274000,297.858000,247.274000,297.858000ZM242.450000,289.421000C237.681000,285.456000,231.786000,281.732000,227.660000,277.103000C228.967000,272.340000,238.712000,271.103000,242.454000,271.103000C246.400000,271.103000,255.622000,272.346000,257.192000,277.158000C252.791000,281.642000,247.286000,285.400000,242.450000,289.421000Z"
                      transform="matrix(1 0 0 1 -178.02099999999999 -233.29100000000000)" fill="rgb(0,0,0)"
                      stroke="none" stroke-width="1"/>
                <path id="e2Clk5AoctS22"
                      d="M208.685000,217.692000C198.385000,217.692000,198.372000,233.692000,208.685000,233.692000C218.981000,233.692000,219,217.692000,208.685000,217.692000Z"
                      transform="matrix(1 0 0 1 -172.43400000000000 -223.93000000000001)" fill="rgb(0,0,0)"
                      stroke="none" stroke-width="1"/>
                <path id="e2Clk5AoctS23"
                      d="M208.685000,217.692000C198.385000,217.692000,198.372000,233.692000,208.685000,233.692000C218.981000,233.692000,219,217.692000,208.685000,217.692000Z"
                      transform="matrix(1 0 0 1 -116.11799999999999 -223.93000000000001)" fill="rgb(0,0,0)"
                      stroke="none" stroke-width="1"/>
                <path id="e2Clk5AoctS24"
                      d="M305.900000,276.542000C305.883846,278.419822,306.958673,280.136425,308.655000,280.942000L331.391000,291.742000C336.821000,294.322000,341.154000,285.694000,335.533000,283.023000L322.178000,276.679000L335.458000,270.646000C341.139000,268.065000,337.148000,259.279000,331.466000,261.858000L308.729000,272.190000C307.019722,272.966855,305.916152,274.664535,305.900000,276.542000Z"
                      transform="matrix(1 0 0 1 -209.36400000000000 -233.27199999999999)" fill="rgb(0,0,0)"
                      stroke="none" stroke-width="1"/>
                <path id="e2Clk5AoctS25"
                      d="M185.440000,272.700000L162.704000,261.900000C157.068000,259.221000,152.926000,267.941000,158.562000,270.619000L171.917000,276.963000L158.637000,282.996000C153.052000,285.533000,157.117000,294.286000,162.629000,291.784000L185.365000,281.455000C187.048214,280.655727,188.127036,278.965257,188.143001,277.101982C188.158967,275.238707,187.109271,273.529998,185.440000,272.702000Z"
                      transform="matrix(1 0 0 1 -155.87899999999999 -233.27099999999999)" fill="rgb(0,0,0)"
                      stroke="none" stroke-width="1"/>
            </g>
        </g>
    </g>
</svg>